<?xml version="1.0" encoding="UTF-8" standalone="no"?>
<svg
   xmlns:dc="http://purl.org/dc/elements/1.1/"
   xmlns:cc="http://creativecommons.org/ns#"
   xmlns:rdf="http://www.w3.org/1999/02/22-rdf-syntax-ns#"
   xmlns:svg="http://www.w3.org/2000/svg"
   xmlns="http://www.w3.org/2000/svg"
   xmlns:xlink="http://www.w3.org/1999/xlink"
   id="svg3404"
   xml:space="preserve"
   viewBox="0 0 600 600"
   y="0px"
   x="0px"
   class="rocketManSVG"
   version="1.1"><metadata
     id="metadata3598"><rdf:RDF><cc:Work
         rdf:about=""><dc:format>image/svg+xml</dc:format><dc:type
           rdf:resource="http://purl.org/dc/dcmitype/StillImage" /><dc:title></dc:title></cc:Work></rdf:RDF></metadata><defs
     id="defs3406"><path
       d="M300,465.7L300,465.7c-13.8,0-25-11.3-25-25V249.4c0-13.7,11.3-25,25-25h0c13.7,0,25,11.2,25,25v191.3   C325,454.5,313.8,465.7,300,465.7z"
       id="rocketClip" /><clipPath
       id="rainbowClip"><use
         id="use3410"
         overflow="visible"
         xlink:href="#rocketClip" /></clipPath><symbol
       id="badge"><circle
         id="circle3413"
         r="8.7"
         cy="288.9"
         cx="319.6"
         stroke-miterlimit="10"
         stroke-width="1.4389"
         stroke="#EF3D43"
         fill="#1668B2" /><g
         id="g3415"><g
           id="g3417"><path
             id="path3419"
             d="M319.6,294.7L319.6,294.7c-1.7,0-2.8-0.9-2.6-1.9c0.5-2.6,0.9-5.2,1.4-7.8c0.2-1,0.4-2.8,1.2-2.8     c0,0,0,0,0,0c0.8,0,1,1.8,1.2,2.8c0.5,2.6,0.9,5.2,1.4,7.8C322.5,293.8,321.3,294.6,319.6,294.7z"
             fill="#FFFFFF" /></g><path
           id="path3421"
           d="M316.4,294.2L316.4,294.2c-0.4,0-0.8-0.3-0.8-0.8v-3.3c0-0.4,0.3-0.8,0.8-0.8l0,0c0.4,0,0.8,0.3,0.8,0.8    v3.3C317.2,293.9,316.9,294.2,316.4,294.2z"
           fill="#FFFFFF" /><path
           id="path3423"
           d="M322.8,294.2L322.8,294.2c-0.4,0-0.7-0.3-0.7-0.7v-3.3c0-0.4,0.3-0.7,0.7-0.7l0,0c0.4,0,0.7,0.3,0.7,0.7    v3.3C323.6,293.9,323.2,294.2,322.8,294.2z"
           fill="#FFFFFF" /></g><g
         id="g3425"><circle
           id="circle3427"
           r="0.7"
           cy="288.3"
           cx="314"
           fill="#FFFFFF" /><ellipse
           id="ellipse3429"
           ry="1.2"
           rx="0.1"
           cy="288.3"
           cx="314"
           fill="#FFFFFF" /><ellipse
           id="ellipse3431"
           ry="0.1"
           rx="1.3"
           cy="288.3"
           cx="314"
           fill="#FFFFFF" /></g><g
         id="g3433"><circle
           id="circle3435"
           r="0.7"
           cy="286.4"
           cx="324.8"
           fill="#FFFFFF" /><ellipse
           id="ellipse3437"
           ry="1.2"
           rx="0.1"
           cy="286.4"
           cx="324.8"
           fill="#FFFFFF" /><ellipse
           id="ellipse3439"
           ry="0.1"
           rx="1.3"
           cy="286.4"
           cx="324.8"
           fill="#FFFFFF" /></g></symbol></defs><polygon
     id="polygon3441"
     points="1.2,0 1.6,0.8 2.4,0.9 1.8,1.5 1.9,2.3 1.2,1.9 0.5,2.3 0.6,1.5 0,0.9 0.8,0.8 "
     fill="#ECB447"
     opacity="0.5"
     class="star" /><g
     id="g3443"
     class="starContainer" /><g
     id="g3445"
     class="satellite"><g
       id="g3447"
       stroke="#2d2d2d"
       class="satellitePulses"><path
         id="path3449"
         d="M156.3,131.8  c-2.8,2.8-7.2,2.8-10,0"
         stroke-miterlimit="10"
         stroke-linejoin="round"
         stroke-width="1.5814"
         fill="none"
         class="satellitePulse" /><path
         id="path3451"
         d="M158.6,134  c-4,4-10.5,4-14.4,0"
         stroke-miterlimit="10"
         stroke-linejoin="round"
         stroke-width="1.5814"
         fill="none"
         class="satellitePulse" /><path
         id="path3453"
         d="M160.8,136.3  c-5.2,5.2-13.7,5.2-18.9,0"
         stroke-miterlimit="10"
         stroke-linejoin="round"
         stroke-width="1.5814"
         fill="none"
         class="satellitePulse" /></g><path
       id="path3455"
       d="M106.7,91.3h-8.2v-8.2h8.2V91.3z M116.8,83.1h-8.2v8.2h8.2V83.1z M126.8,83.1h-8.2v8.2h8.2V83.1z  M136.9,83.1h-8.2v8.2h8.2V83.1z M106.7,93.2h-8.2v8.2h8.2V93.2z M116.8,93.2h-8.2v8.2h8.2V93.2z M126.8,93.2h-8.2v8.2h8.2V93.2z  M136.9,93.2h-8.2v8.2h8.2V93.2z M106.7,103.3h-8.2v8.2h8.2V103.3z M116.8,103.3h-8.2v8.2h8.2V103.3z M126.8,103.3h-8.2v8.2h8.2 V103.3z M136.9,103.3h-8.2v8.2h8.2V103.3z M173.7,83.1h-8.2v8.2h8.2V83.1z M183.8,83.1h-8.2v8.2h8.2V83.1z M193.8,83.1h-8.2v8.2h8.2 V83.1z M203.9,83.1h-8.2v8.2h8.2V83.1z M173.7,93.2h-8.2v8.2h8.2V93.2z M183.8,93.2h-8.2v8.2h8.2V93.2z M193.8,93.2h-8.2v8.2h8.2 V93.2z M203.9,93.2h-8.2v8.2h8.2V93.2z M173.7,103.3h-8.2v8.2h8.2V103.3z M183.8,103.3h-8.2v8.2h8.2V103.3z M193.8,103.3h-8.2v8.2 h8.2V103.3z M203.9,103.3h-8.2v8.2h8.2V103.3z M161.8,113.1V81c0-2.6-2.1-4.7-4.7-4.7h-11.7c-2.6,0-4.7,2.1-4.7,4.7v32.1 c0,2.6,2.1,4.7,4.7,4.7h11.7C159.7,117.8,161.8,115.7,161.8,113.1z M165.6,96.3h-28.7v2.1h28.7V96.3z M152.3,117.8h-2.2v12.1h2.2 V117.8z"
       fill="#2d2d2d" /></g><g
     id="g3457"
     stroke-linejoin="round"
     stroke-width="2"
     stroke="#3e3e3e"
     class="speedLines"><line
       y2="566"
       x2="252.5"
       y1="324"
       x1="252.5"
       stroke-miterlimit="10"
       fill="none"
       id="speedLine0" /><line
       y2="557"
       x2="299.5"
       y1="500"
       x1="299.5"
       stroke-miterlimit="10"
       fill="none"
       id="speedLine1" /><line
       y2="529"
       x2="347.5"
       y1="324"
       x1="347.5"
       stroke-miterlimit="10"
       fill="none"
       id="speedLine2" /><line
       y2="500"
       x2="74.5"
       y1="45"
       x1="74.5"
       stroke-miterlimit="10"
       fill="none"
       id="speedLine3" /><line
       y2="574"
       x2="544.5"
       y1="29"
       x1="544.5"
       stroke-miterlimit="10"
       fill="none"
       id="speedLine4" /><line
       y2="440"
       x2="415.5"
       y1="8"
       x1="415.5"
       stroke-miterlimit="10"
       fill="none"
       id="speedLine5" /><line
       y2="574"
       x2="165.5"
       y1="142"
       x1="165.5"
       stroke-miterlimit="10"
       fill="none"
       id="speedLine6" /></g><rect
     id="rect3466"
     height="212.7"
     width="10"
     fill="#CC583F"
     clip-path="url(#rainbowClip)"
     y="263.3"
     x="275" /><rect
     id="rect3468"
     height="212.7"
     width="10"
     fill="#ECB447"
     clip-path="url(#rainbowClip)"
     y="263.3"
     x="285" /><rect
     id="rect3470"
     height="212.7"
     width="10"
     fill="#75C095"
     clip-path="url(#rainbowClip)"
     y="263.3"
     x="295" /><rect
     id="rect3472"
     height="212.7"
     width="10"
     fill="#5991AA"
     clip-path="url(#rainbowClip)"
     y="263.3"
     x="305" /><rect
     id="rect3474"
     height="212.7"
     width="10"
     fill="#7D6AAD"
     clip-path="url(#rainbowClip)"
     y="263.3"
     x="315" /><g
     id="g3542"><g
       id="g3544"><g
         transform="translate(-2,0)"
         id="g3810"><g
           id="g3546"
           transform="translate(8,0)"><g
             id="g3548" /><g
             id="g3566"><path
               d="m 256.6,586.7 c -0.7,0 -1.6,-0.1 -2.4,-0.2 l 0,-8.5 c 0.6,-0.1 1.5,-0.2 2.3,-0.2 2.3,0 3.5,1.1 3.5,2.3 0,0.9 -0.4,1.6 -1.5,2 1.3,0.4 1.8,1.1 1.8,2.1 -0.2,1.3 -1.4,2.5 -3.7,2.5 z m 0.1,-7.6 c -0.4,0 -0.7,0 -1,0.1 l 0,2.4 c 0.2,0 0.5,0 0.9,0 1.3,0 1.8,-0.6 1.8,-1.3 0,-0.7 -0.6,-1.2 -1.7,-1.2 z m -0.1,3.6 c -0.3,0 -0.7,0 -0.9,0 l 0,2.6 c 0.3,0 0.7,0.1 1.1,0.1 1.2,0 1.8,-0.6 1.8,-1.4 -0.1,-0.7 -0.7,-1.3 -2,-1.3 z"
               id="path3568"
               style="fill:#2d2d2d" /><path
               d="m 265.1,583 0,3.7 -1.5,0 0,-3.7 -3.1,-5.1 1.7,0 2.2,3.7 2.1,-3.7 1.7,0 -3.1,5.1 z"
               id="path3570"
               style="fill:#2d2d2d" /><path
               d="m 276.4,586.8 c -2.8,0 -4.7,-1.9 -4.7,-4.5 0,-2.6 2,-4.5 4.7,-4.5 1.1,0 2.1,0.3 2.8,0.8 l -0.5,1.3 c -0.7,-0.4 -1.6,-0.7 -2.3,-0.7 -1.9,0 -3.1,1.3 -3.1,3.1 0,1.8 1.2,3.1 3.1,3.1 0.8,0 1.7,-0.3 2.4,-0.7 l 0.5,1.3 c -0.8,0.4 -1.8,0.8 -2.9,0.8 z"
               id="path3572"
               style="fill:#2d2d2d" /><path
               d="m 286.1,586.7 0,-3.8 -4,0 0,3.8 -1.5,0 0,-8.8 1.5,0 0,3.7 4,0 0,-3.7 1.5,0 0,8.8 -1.5,0 z"
               id="path3574"
               style="fill:#2d2d2d" /><path
               d="m 294.3,586.7 -1.9,-3.2 c -0.2,0 -0.3,0 -0.5,0 -0.3,0 -0.6,0 -0.9,0 l 0,3.2 -1.5,0 0,-8.7 c 0.7,-0.1 1.4,-0.1 2.3,-0.1 2.5,0 3.6,1.2 3.6,2.8 0,1.1 -0.6,2.1 -1.7,2.5 l 2.3,3.5 -1.7,0 z m -2.2,-7.5 c -0.4,0 -0.7,0 -1,0.1 l 0,3 c 0.3,0 0.6,0 0.9,0 1.3,0 2,-0.6 2,-1.6 -0.1,-0.9 -0.8,-1.5 -1.9,-1.5 z"
               id="path3576"
               style="fill:#2d2d2d" /><path
               d="m 297.2,586.7 0,-8.8 1.5,0 0,8.8 -1.5,0 z"
               id="path3578"
               style="fill:#2d2d2d" /><path
               d="m 302.8,586.8 c -1,0 -2,-0.4 -2.8,-0.9 l 0.5,-1.3 c 0.7,0.5 1.5,0.8 2.3,0.8 0.9,0 1.3,-0.5 1.3,-1.2 0,-0.6 -0.3,-1 -1.7,-1.6 -1.5,-0.6 -2.1,-1.4 -2.1,-2.5 0,-1.3 1.1,-2.5 2.9,-2.5 0.9,0 1.7,0.3 2.2,0.6 l -0.5,1.3 c -0.5,-0.3 -1.2,-0.6 -1.8,-0.6 -0.9,0 -1.4,0.5 -1.4,1.1 0,0.6 0.4,0.9 1.5,1.4 1.7,0.8 2.2,1.5 2.2,2.6 0.3,1.6 -0.8,2.8 -2.6,2.8 z"
               id="path3580"
               style="fill:#2d2d2d" /><path
               d="m 317.4,582 0,3.8 c -0.9,0.6 -2,1 -3.3,1 -2.5,0 -4.7,-1.8 -4.7,-4.5 0,-2.7 2.2,-4.5 4.7,-4.5 1.3,0 2.2,0.4 3.1,0.9 l -0.7,1.2 c -0.7,-0.5 -1.5,-0.7 -2.4,-0.7 -2,0 -3.1,1.4 -3.1,3.2 0,1.9 1.4,3.2 3.1,3.2 0.8,0 1.3,-0.1 1.8,-0.4 l 0,-1.7 -2.1,0 0,-1.5 3.6,0 z"
               id="path3582"
               style="fill:#2d2d2d" /><path
               d="m 324.7,586.7 -0.9,-2 -3.5,0 -0.9,2 -1.4,0 4.1,-8.9 0.2,0 4,8.9 -1.6,0 z m -2.5,-6.2 -1.2,2.9 2.5,0 -1.3,-2.9 z"
               id="path3584"
               style="fill:#2d2d2d" /><path
               d="m 334.3,586.8 -5.5,-5.8 0,5.6 -1.5,0 0,-8.9 0.2,0 5.4,5.7 0,-5.6 1.5,0 0,8.9 -0.1,0.1 z"
               id="path3586"
               style="fill:#2d2d2d" /><path
               d="m 343.4,586.8 -5.5,-5.8 0,5.6 -1.5,0 0,-8.9 0.2,0 5.4,5.7 0,-5.6 1.5,0 0,8.9 -0.1,0.1 z"
               id="path3588"
               style="fill:#2d2d2d" /><path
               d="m 349.6,586.8 c -2.5,0 -4.4,-1.9 -4.4,-4.5 0,-2.6 1.9,-4.5 4.5,-4.5 2.5,0 4.4,1.9 4.4,4.5 -0.1,2.6 -2,4.5 -4.5,4.5 z m 0,-7.7 c -1.7,0 -2.8,1.4 -2.8,3.2 0,1.8 1.2,3.2 2.8,3.2 1.7,0 2.8,-1.4 2.8,-3.2 0,-1.9 -1.1,-3.2 -2.8,-3.2 z"
               id="path3590"
               style="fill:#2d2d2d" /><path
               d="m 362.7,586.8 -5.5,-5.8 0,5.6 -1.5,0 0,-8.9 0.2,0 5.4,5.7 0,-5.6 1.5,0 0,8.9 -0.1,0.1 z"
               id="path3592"
               style="fill:#2d2d2d" /></g></g><g
           id="g3714"
           transform="translate(-58.951271,15.730932)"><path
             style="fill:#2d2d2d"
             id="path3578-2"
             d="m 286.22034,570.87246 0,-8.8 1.5,0 0,8.8 -1.5,0 z" /><path
             style="fill:#2d2d2d"
             id="path3572-7"
             d="m 294.38517,570.97246 c -2.8,0 -4.7,-1.9 -4.7,-4.5 0,-2.6 2,-4.5 4.7,-4.5 1.1,0 2.1,0.3 2.8,0.8 l -0.5,1.3 c -0.7,-0.4 -1.6,-0.7 -2.3,-0.7 -1.9,0 -3.1,1.3 -3.1,3.1 0,1.8 1.2,3.1 3.1,3.1 0.8,0 1.7,-0.3 2.4,-0.7 l 0.5,1.3 c -0.8,0.4 -1.8,0.8 -2.9,0.8 z" /><path
             style="fill:#2d2d2d"
             id="path3590-6"
             d="m 302.96907,571.13136 c -2.5,0 -4.4,-1.9 -4.4,-4.5 0,-2.6 1.9,-4.5 4.5,-4.5 2.5,0 4.4,1.9 4.4,4.5 -0.1,2.6 -2,4.5 -4.5,4.5 z m 0,-7.7 c -1.7,0 -2.8,1.4 -2.8,3.2 0,1.8 1.2,3.2 2.8,3.2 1.7,0 2.8,-1.4 2.8,-3.2 0,-1.9 -1.1,-3.2 -2.8,-3.2 z" /><path
             style="fill:#2d2d2d"
             id="path3586-7"
             d="m 315.84407,571.18136 -5.5,-5.8 0,5.6 -1.5,0 0,-8.9 0.2,0 5.4,5.7 0,-5.6 1.5,0 0,8.9 -0.1,0.1 z" /></g></g></g></g><g
     id="g3476"
     class="astronaut"><g
       id="g3478"
       stroke="#ededed"
       opacity="0.2"
       class="pulseSVG"><path
         id="path3480"
         d="M289.9,188.7  c5.2-5.2,13.7-5.2,18.9,0"
         stroke-miterlimit="10"
         stroke-linejoin="round"
         stroke-width="3"
         fill="none"
         class="pulse" /><path
         id="path3482"
         d="M285.6,184.5  c7.6-7.6,19.8-7.6,27.4,0"
         stroke-miterlimit="10"
         stroke-linejoin="round"
         stroke-width="3"
         fill="none"
         class="pulse" /><path
         id="path3484"
         d="M281.4,180.3  c9.9-9.9,26-9.9,35.9,0"
         stroke-miterlimit="10"
         stroke-linejoin="round"
         stroke-width="3"
         fill="none"
         class="pulse" /></g><g
       id="g3486"><g
         id="g3488"><g
           id="g3490"><path
             id="path3492"
             d="M265,320.7c0,0,0.1,0,0.1,0h0.2c0,0,0,0,0,0l0.2,0c0,0,0,0,0,0v-16.1h-21.4c0.9,3.7,2.8,6.9,5.6,9.8     C254,318.6,259.1,320.7,265,320.7 M334.9,320.7c0,0,0.1,0,0.1,0c5.9,0,11-2.1,15.2-6.3c2.9-2.9,4.7-6.1,5.6-9.8h-21.4v16.1     l0.2,0c0,0,0,0,0,0h0h0H334.9 M271.8,224.4c-4.3,0.9-8.1,2.9-11.4,6.2c-4.5,4.5-6.7,9.9-6.7,16.2v13.6c3.3-2.1,7.1-3.2,11.3-3.2     h0c0.9,0,1.7,0,2.6,0.1c-1.5-3.9-2.3-8.2-2.3-12.7C265.3,237,267.5,230.3,271.8,224.4 M346.3,260.4v-13.6     c0-6.3-2.2-11.7-6.7-16.2c-3-3-6.5-5.1-10.4-6l-0.2,0.8c3.9,5.6,5.8,12,5.8,19.2c0,4.2-0.7,8.1-2,11.8l0.1,0.8     c0.7-0.1,1.4-0.1,2.2-0.1h0C339.2,257.2,342.9,258.3,346.3,260.4z"
             fill="#CCCCCC" /><path
             id="path3494"
             d="M299.9,210.1c0,0-0.1,0-0.1,0c-9.5,0-17.6,3.4-24.3,10.1c-1.3,1.3-2.5,2.7-3.6,4.2     c-4.3,5.9-6.5,12.6-6.5,20.3c0,4.6,0.8,8.8,2.3,12.7c0.2,0.6,0.5,1.2,0.8,1.8c1.7,3.6,4,6.9,7.1,9.9c3.3,3.3,6.8,5.7,10.7,7.4     c0.1,0,0.2,0.1,0.2,0.1c0.8,0.3,1.6,0.7,2.5,0.9c3.4,1.1,7.1,1.7,11,1.7c9.5,0,17.7-3.4,24.4-10.1c3.6-3.6,6.2-7.5,7.9-11.8     c0.1-0.3,0.2-0.6,0.3-0.9c1.3-3.6,1.9-7.6,1.9-11.7c0-7.2-1.9-13.5-5.7-19.1l-0.2-0.2c0,0,0-0.1-0.1-0.1l0,0l-0.1-0.1l-0.1-0.1     c0,0,0,0,0,0l-0.1-0.1c0-0.1-0.1-0.1-0.1-0.2c0,0,0-0.1-0.1-0.1c-1.1-1.5-2.3-2.9-3.7-4.3C317.5,213.5,309.4,210.1,299.9,210.1      M350.1,263.5c-1.2-1.2-2.5-2.3-3.9-3.1c-3.3-2.1-7.1-3.2-11.3-3.2h0c-0.7,0-1.5,0-2.2,0.1c-0.1,0-0.2,0-0.3,0c0,0-0.1,0-0.1,0     l-0.3-0.1c-1.7,4.3-4.3,8.3-7.9,11.8c-6.7,6.7-14.9,10.1-24.4,10.1c-3.9,0-7.6-0.6-11-1.7c-0.8-0.3-1.7-0.6-2.5-0.9     c-0.1,0-0.2-0.1-0.2-0.1c-3.9-1.7-7.5-4.2-10.7-7.4c-3-3-5.4-6.3-7.1-9.9c-0.3-0.6-0.5-1.2-0.8-1.8c-0.8-0.1-1.7-0.1-2.6-0.1h0     c-4.2,0-8,1.1-11.3,3.2c-1.4,0.9-2.7,1.9-3.9,3.1c-4.2,4.2-6.3,9.2-6.3,15.2v20.6c0,1.9,0.2,3.7,0.6,5.4h21.4v-22.6v22.6v16.1     V338c0.6,3.3,2.2,6.2,4.7,8.7c3.3,3.4,7.3,5,12,5c4.7,0,8.9-1.8,12.7-5.3c2.8-2.6,4.5-5.5,5-8.7v-15.9h-12.7H300h13h-13v15.9     c0.5,3.2,2.2,6.1,5,8.7c3.8,3.5,8,5.3,12.7,5.3c4.7,0,8.7-1.7,12-5c2.5-2.5,4-5.4,4.7-8.7v-17.3v-16.1v-22.6v22.6h21.4     c0.4-1.7,0.6-3.5,0.6-5.4v-20.6C356.4,272.8,354.3,267.7,350.1,263.5 M300,311.1v-30.1V311.1z"
             fill="#FFFFFF" /><path
             id="path3496"
             d="M299.7,195.5c-1.1,0-2,0.4-2.7,1.1c-0.7,0.7-1.1,1.6-1.1,2.7c0,1.1,0.4,2,1.1,2.7     c0.7,0.7,1.6,1.1,2.7,1.1c1.1,0,2-0.4,2.7-1.1c0.7-0.7,1.1-1.6,1.1-2.7c0-1.1-0.4-2-1.1-2.7     C301.7,195.8,300.8,195.5,299.7,195.5z"
             fill="#2D2D2D" /></g></g><path
         id="path3498"
         d="M355.8,304.6   c0.4-1.7,0.6-3.5,0.6-5.4v-20.6c0-5.9-2.1-11-6.3-15.2c-1.2-1.2-2.5-2.3-3.9-3.1c-3.3-2.1-7.1-3.2-11.3-3.2h0   c-0.7,0-1.5,0-2.2,0.1c-0.1,0-0.2,0-0.3,0c0,0-0.1,0-0.1,0 M332.1,257.3c-1.7,4.3-4.3,8.3-7.9,11.8c-6.7,6.7-14.9,10.1-24.4,10.1   c-3.9,0-7.6-0.6-11-1.7c-0.8-0.3-1.7-0.6-2.5-0.9c-0.1,0-0.2-0.1-0.2-0.1c-3.9-1.7-7.5-4.2-10.7-7.4c-3-3-5.4-6.3-7.1-9.9   c-0.3-0.6-0.5-1.2-0.8-1.8c-0.8-0.1-1.7-0.1-2.6-0.1h0c-4.2,0-8,1.1-11.3,3.2c-1.4,0.9-2.7,1.9-3.9,3.1c-4.2,4.2-6.3,9.2-6.3,15.2   v20.6c0,1.9,0.2,3.7,0.6,5.4h21.4v-22.6 M346.3,260.4v-13.6c0-6.3-2.2-11.7-6.7-16.2c-3-3-6.5-5.1-10.4-6 M328.9,225.4   c3.9,5.6,5.8,12,5.8,19.2c0,4.2-0.7,8.1-2,11.8 M299.7,203.1c-1.1,0-2-0.4-2.7-1.1c-0.7-0.7-1.1-1.6-1.1-2.7c0-1.1,0.4-2,1.1-2.7   c0.7-0.7,1.6-1.1,2.7-1.1c1.1,0,2,0.4,2.7,1.1c0.7,0.7,1.1,1.6,1.1,2.7c0,1.1-0.4,2-1.1,2.7C301.7,202.7,300.8,203.1,299.7,203.1   v7.1c0,0,0.1,0,0.1,0c9.5,0,17.7,3.4,24.4,10.1c1.4,1.4,2.6,2.8,3.7,4.3c0,0,0,0.1,0.1,0.1c0,0.1,0.1,0.1,0.1,0.2l0.1,0.1   c0,0,0,0,0,0c0,0,0.1,0.1,0.1,0.1c0,0,0,0,0,0c0,0,0,0,0,0l0.1,0.1l0,0c0,0,0,0,0.1,0.1l0.2,0.2c3.8,5.6,5.7,12,5.7,19.1   c0,4.2-0.6,8.1-1.9,11.7c-0.1,0.3-0.2,0.6-0.3,0.9 M329.2,224.6L329.2,224.6C329.1,224.6,329.1,224.6,329.2,224.6   C329.1,224.6,329.1,224.6,329.2,224.6c-0.3-0.1-0.6-0.1-0.8-0.2c0,0-0.1,0-0.2,0c0,0,0,0.1,0.1,0.1c0,0,0,0.1,0,0.1   c0.1,0.1,0.2,0.3,0.3,0.4c0,0,0,0,0,0l0,0c0.1,0.1,0.2,0.3,0.3,0.4c0,0,0,0,0,0 M271.8,224.4c1.1-1.4,2.3-2.8,3.6-4.2   c6.7-6.7,14.8-10.1,24.3-10.1 M253.7,260.4v-13.6c0-6.3,2.2-11.7,6.7-16.2c3.3-3.3,7.1-5.4,11.4-6.2c-4.3,5.9-6.5,12.6-6.5,20.3   c0,4.6,0.8,8.8,2.3,12.7 M332.7,256.5C332.7,256.5,332.7,256.5,332.7,256.5L332.7,256.5c0,0,0,0.1,0,0.1c0,0,0,0,0,0.1l-0.2,0.5   c0,0.1-0.1,0.1-0.1,0.2 M334.7,320.7h0.2c0,0,0.1,0,0.1,0c5.9,0,11-2.1,15.2-6.3c2.9-2.9,4.7-6.1,5.6-9.8h-21.4v16.1l0.2,0    M334.6,320.7L334.6,320.7 M287.3,321.8H300h13 M300,337.8c0.5,3.2,2.2,6.1,5,8.7c3.8,3.5,8,5.3,12.7,5.3c4.7,0,8.7-1.7,12-5   c2.5-2.5,4-5.4,4.7-8.7v-17.3 M265.6,320.7V338c0.6,3.3,2.2,6.2,4.7,8.7c3.3,3.4,7.3,5,12,5c4.7,0,8.9-1.8,12.7-5.3   c2.8-2.6,4.5-5.5,5-8.7v-15.9 M265.6,320.7C265.6,320.7,265.6,320.7,265.6,320.7l-0.3,0c0,0,0,0,0,0h-0.2c0,0-0.1,0-0.1,0   c-5.9,0-11-2.1-15.2-6.3c-2.9-2.9-4.7-6.1-5.6-9.8 M265.6,304.6v16.1 M334.4,282.1v22.6 M300,311.1v-30.1"
         stroke-linejoin="round"
         stroke-linecap="round"
         stroke-width="4"
         stroke="#2D2D2D"
         fill="none" /></g><g
       id="g3500"><path
         id="path3502"
         d="M324.5,261.6c6.8-4.3,10.2-9.5,10.2-15.5c0-5.1-2.4-9.6-7.2-13.4H272c-4.8,3.8-7.3,8.3-7.3,13.4   c0,6.1,3.4,11.2,10.2,15.5c6.8,4.3,15.1,6.4,24.7,6.4C309.4,268,317.6,265.9,324.5,261.6z"
         fill="#7592A0" /></g><path
       id="path3504"
       d="M334.7,246.1  c0,6.1-3.4,11.2-10.2,15.5c-6.8,4.3-15.1,6.4-24.7,6.4c-9.7,0-17.9-2.1-24.7-6.4c-6.8-4.3-10.2-9.5-10.2-15.5  c0-5.1,2.4-9.6,7.3-13.4h55.5C332.3,236.5,334.7,241,334.7,246.1z"
       stroke-linejoin="round"
       stroke-linecap="round"
       stroke-width="4"
       stroke="#2D2D2D"
       fill="none" /><path
       id="path3506"
       d="  M323.5,240.6c2.4,3.5,2.4,7.8,0,12.7 M275.8,240.6c-2.4,3.5-2.4,7.8,0,12.7"
       stroke-linejoin="round"
       stroke-linecap="round"
       stroke-width="4"
       stroke="#E6E6E6"
       fill="none" /><svg
       version="1.1"
       id="svg3508"
       class="jetBubbles"><g
         fill="#2d2d2d"
         id="greyJets"><circle
           id="circle3511"
           r="23"
           cy="489"
           cx="289"
           class="jetBubble" /><circle
           id="circle3513"
           r="20"
           cy="470"
           cx="270"
           class="jetBubble" /><circle
           id="circle3515"
           r="21"
           cy="483"
           cx="319"
           class="jetBubble" /></g><g
         stroke="#3d3d3d"
         stroke-width="0"
         id="colorJets"><circle
           id="circle3518"
           r="8"
           cy="449"
           cx="312"
           fill="#ECB447"
           class="jetBubble" /><circle
           id="circle3520"
           r="10"
           cy="480"
           cx="320"
           fill="#7D6AAD"
           class="jetBubble" /><circle
           id="circle3522"
           r="10"
           cy="460"
           cx="290"
           fill="#7D6AAD"
           class="jetBubble" /><circle
           id="circle3524"
           r="11"
           cy="453"
           cx="329"
           fill="#ECB447"
           class="jetBubble" /><circle
           id="circle3526"
           r="7"
           cy="463"
           cx="286"
           fill="#CC583F"
           class="jetBubble" /><circle
           id="circle3528"
           r="24"
           cy="469"
           cx="289"
           fill="#ECB447"
           class="jetBubble" /><circle
           id="circle3530"
           r="20"
           cy="450"
           cx="260"
           fill="#7D6AAD"
           class="jetBubble" /><circle
           id="circle3532"
           r="10"
           cy="463"
           cx="319"
           fill="#5991AA"
           class="jetBubble" /><circle
           id="circle3534"
           r="18"
           cy="463"
           cx="290"
           fill="#CC583F"
           class="jetBubble" /><circle
           id="circle3536"
           r="21"
           cy="443"
           cx="312"
           fill="#75C095"
           class="jetBubble" /><circle
           id="circle3538"
           r="12"
           cy="443.4"
           cx="275"
           fill="#5991AA"
           class="jetBubble" /></g></svg></g></svg>