<?xml version="1.0" encoding="UTF-8" standalone="no"?>
<svg
   xmlns:svg="http://www.w3.org/2000/svg"
   xmlns="http://www.w3.org/2000/svg"
   xmlns:sodipodi="http://sodipodi.sourceforge.net/DTD/sodipodi-0.dtd"
   xmlns:inkscape="http://www.inkscape.org/namespaces/inkscape"
   version="1.1"
   class="rocketManSVG"
   x="0px"
   y="0px"
   viewBox="0 0 600 600"
   xml:space="preserve"
   id="svg3404"
   inkscape:version="0.91 r13725"
   sodipodi:docname="icon.svg"
   inkscape:export-filename="C:\Users\User\Desktop\CPPDEV\Surfer\assets\icons\icon.png"
   inkscape:export-xdpi="144.85339"
   inkscape:export-ydpi="144.85339"><sodipodi:namedview
     pagecolor="#ffffff"
     bordercolor="#666666"
     borderopacity="1"
     objecttolerance="10"
     gridtolerance="10"
     guidetolerance="10"
     inkscape:pageopacity="0"
     inkscape:pageshadow="2"
     inkscape:window-width="1280"
     inkscape:window-height="962"
     id="namedview3596"
     showgrid="false"
     inkscape:zoom="4.4500587"
     inkscape:cx="281.96091"
     inkscape:cy="352.68195"
     inkscape:window-x="-8"
     inkscape:window-y="-8"
     inkscape:window-maximized="1"
     inkscape:current-layer="svg3404" /><defs
     id="defs3406" /><g
     class="astronaut"
     id="g3476"><g
       id="g3486"><g
         id="g3488"><g
           id="g3490" /></g><path
         d="m 332.1,257.3 c -1.7,4.3 -4.3,8.3 -7.9,11.8 -6.7,6.7 -14.9,10.1 -24.4,10.1 -3.9,0 -7.6,-0.6 -11,-1.7 -0.8,-0.3 -1.7,-0.6 -2.5,-0.9 -0.1,0 -0.2,-0.1 -0.2,-0.1 -3.9,-1.7 -7.5,-4.2 -10.7,-7.4 -3,-3 -5.4,-6.3 -7.1,-9.9 -0.3,-0.6 -0.5,-1.2 -0.8,-1.8 m 67.2,-12.8 c 0,4.2 -0.7,8.1 -2,11.8 m -33,-46.2 0.1,0 c 9.5,0 17.7,3.4 24.4,10.1 6.42643,6.27418 10.11282,15.79641 10.2,24.3 0,4.2 -0.6,8.1 -1.9,11.7 m -60.7,-31.9 c 1.1,-1.4 2.3,-2.8 3.6,-4.2 6.7,-6.7 14.8,-10.1 24.3,-10.1 m -27.9,14.3 c -4.3,5.9 -6.5,12.6 -6.5,20.3 0,4.6 0.8,8.8 2.3,12.7"
         id="path3498"
         inkscape:connector-curvature="0"
         style="fill:none;stroke:#2d2d2d;stroke-width:4;stroke-linecap:round;stroke-linejoin:round"
         sodipodi:nodetypes="ccscccscccccscccccccsc"
         inkscape:export-xdpi="144.85339"
         inkscape:export-ydpi="144.85339" /></g><g
       id="g3500"><path
         fill="#7592A0"
         d="M324.5,261.6c6.8-4.3,10.2-9.5,10.2-15.5c0-5.1-2.4-9.6-7.2-13.4H272c-4.8,3.8-7.3,8.3-7.3,13.4   c0,6.1,3.4,11.2,10.2,15.5c6.8,4.3,15.1,6.4,24.7,6.4C309.4,268,317.6,265.9,324.5,261.6z"
         id="path3502" /></g><path
       fill="none"
       stroke="#2D2D2D"
       stroke-width="4"
       stroke-linecap="round"
       stroke-linejoin="round"
       d="M334.7,246.1  c0,6.1-3.4,11.2-10.2,15.5c-6.8,4.3-15.1,6.4-24.7,6.4c-9.7,0-17.9-2.1-24.7-6.4c-6.8-4.3-10.2-9.5-10.2-15.5  c0-5.1,2.4-9.6,7.3-13.4h55.5C332.3,236.5,334.7,241,334.7,246.1z"
       id="path3504"
       style="stroke-width:4.0999999;stroke-miterlimit:4;stroke-dasharray:none;stroke-linejoin:round;stroke-linecap:round;stroke-dashoffset:0" /><path
       fill="none"
       stroke="#E6E6E6"
       stroke-width="4"
       stroke-linecap="round"
       stroke-linejoin="round"
       d="  M323.5,240.6c2.4,3.5,2.4,7.8,0,12.7 M275.8,240.6c-2.4,3.5-2.4,7.8,0,12.7"
       id="path3506" /></g><path
     style="fill:#ffffff;fill-opacity:1;stroke:#ffffff;stroke-width:0.22471614"
     d="m 270.14084,231.47588 c 0,-0.34739 1.47472,-2.96973 2.72613,-4.84758 1.89143,-2.83828 6.34941,-7.30664 9.12565,-9.14691 3.42768,-2.27208 7.15316,-3.8251 11.18162,-4.66121 3.91717,-0.81301 9.93777,-0.65292 14.38183,0.38243 8.07768,1.88187 15.60892,7.45551 19.90727,14.73276 0.63229,1.07051 1.2283,2.1533 1.32447,2.4062 l 0.17484,0.45984 -28.79048,-0.0587 c -28.67787,-0.0585 -28.79291,-0.0569 -29.41091,0.39998 -0.34123,0.25229 -0.62042,0.40223 -0.62042,0.33321 z"
     id="path4464"
     inkscape:connector-curvature="0" /><path
     style="fill:#ffffff;fill-opacity:1;stroke:#ffffff;stroke-width:0.22471614"
     d="m 297.33149,276.96511 c -8.86461,-0.55774 -16.87996,-4.74882 -22.69633,-11.86751 -0.92695,-1.1345 -1.72046,-2.16499 -1.76334,-2.28997 -0.0429,-0.12499 0.56386,0.19029 1.3483,0.70061 4.84172,3.14978 12.26077,5.56573 19.25883,6.27145 5.53645,0.55833 13.39411,0.1704 18.39053,-0.90793 4.71937,-1.01854 10.14328,-3.16853 13.49535,-5.34944 0.77246,-0.50258 1.40447,-0.85774 1.40447,-0.78925 0,0.33699 -2.33017,3.11281 -4.0373,4.80943 -5.62082,5.58621 -12.64201,8.91863 -19.67025,9.33595 -1.11234,0.0661 -2.32581,0.14597 -2.69659,0.1776 -0.37078,0.0316 -1.73593,-0.009 -3.03367,-0.0909 z"
     id="path4466"
     inkscape:connector-curvature="0" /><path
     style="fill:#ffffff;fill-opacity:1;stroke:#ffffff;stroke-width:0;stroke-miterlimit:4;stroke-dasharray:none"
     d="m 296.61809,276.98176 c -7.76046,-0.74056 -14.63642,-4.05927 -20.10209,-9.70237 -1.49651,-1.5451 -3.67857,-4.21348 -3.67857,-4.49843 0,-0.0976 0.65563,0.22391 1.45695,0.71438 4.78153,2.92662 10.65093,4.97105 17.2025,5.99198 3.18216,0.49587 11.90972,0.55866 15.4974,0.11148 6.73583,-0.83955 13.51779,-3.06681 17.98151,-5.90529 1.79991,-1.14456 1.79351,-1.14138 1.79351,-0.89184 0,0.41511 -3.2802,4.18054 -4.99393,5.73265 -6.07098,5.49847 -12.6018,8.18463 -20.73606,8.52885 -1.35954,0.0575 -3.34908,0.0209 -4.42122,-0.0814 z"
     id="path4468"
     inkscape:connector-curvature="0" /><path
     style="fill:#ffffff;fill-opacity:1;stroke:#ffffff;stroke-width:0;stroke-miterlimit:4;stroke-dasharray:none"
     d="m 270.14084,231.29951 c 0,-0.49964 2.82962,-5.05512 4.11166,-6.61947 3.29816,-4.02444 7.12855,-7.19508 11.05488,-9.15077 4.47146,-2.22721 7.57105,-3.006 12.69826,-3.1905 7.59831,-0.27341 13.70827,1.33898 19.4542,5.13386 2.68122,1.77081 6.2677,5.09613 8.04633,7.46043 1.07904,1.43434 3.5103,5.42201 3.5103,5.75747 0,0.073 -12.84666,0.0944 -28.54813,0.0477 -28.48652,-0.0848 -28.55004,-0.084 -29.43781,0.37874 -0.61501,0.32056 -0.88969,0.37692 -0.88969,0.18254 z"
     id="path4470"
     inkscape:connector-curvature="0" /></svg>